<svg width="1792" height="1024" viewBox="0 0 1792 1024" fill="none" xmlns="http://www.w3.org/2000/svg">
<path fill-rule="evenodd" clip-rule="evenodd" d="M1077.63 759.663C1076.9 765.019 1077.09 765.424 1079.93 764.524C1082.19 763.806 1082.54 761.557 1081.03 757.565C1079.56 753.71 1078.35 754.461 1077.63 759.663ZM1079.25 797.25C1078.76 800.138 1078.62 802.826 1078.95 803.224C1079.66 804.081 1087.22 803.006 1086.77 802.113C1082.7 794.104 1081.48 792 1080.88 792C1080.48 792 1079.75 794.362 1079.25 797.25ZM1082.09 847.097C1081.41 849.351 1081.14 851.47 1081.47 851.807C1082.11 852.446 1090.2 852.114 1090.91 851.419C1091.13 851.2 1090.5 849.216 1089.51 847.01C1086.97 841.395 1083.79 841.432 1082.09 847.097ZM667.864 847.774C664.881 848.155 664 850.758 664 859.188C664 863.334 664.281 864.08 665.75 863.838C666.712 863.679 668.082 863.915 668.794 864.361C671.694 866.179 673.376 862.385 674.221 852.115C674.53 848.369 672.743 847.149 667.864 847.774ZM616.75 848.672C615.273 849.073 615 850.367 615 856.966C615 863.08 615.335 864.915 616.538 865.376C617.433 865.72 618.327 865.311 618.677 864.399C619.159 863.144 619.441 863.096 620.098 864.158C621.866 867.02 623.092 863.271 622.797 855.903C622.483 848.079 621.827 847.294 616.75 848.672ZM376.318 852.667L370.135 853.092L369.818 862.796C369.643 868.133 369.502 872.577 369.504 872.671C369.506 872.764 376.256 872.233 384.504 871.49C392.752 870.747 402.988 869.844 407.25 869.484C411.512 869.124 415 868.418 415 867.915C415 867.412 414.438 867.001 413.75 867.002C412.849 867.003 412.596 865.3 412.844 860.896C413.033 857.537 412.792 854.392 412.307 853.907C411.307 852.907 385.679 852.023 376.318 852.667ZM1519.6 854.736C1518.86 855.477 1518.84 859.813 1519.57 862.532C1520.13 864.608 1525.61 867.72 1526.74 866.598C1527.08 866.257 1526.38 864.234 1525.18 862.103C1523.98 859.971 1523 857.55 1523 856.721C1523 855.124 1520.61 853.727 1519.6 854.736ZM1562.46 857.25C1562.07 859.038 1561.1 861.789 1560.29 863.365C1558.46 866.957 1559.92 868.847 1562.41 866.097C1565.27 862.936 1566.45 854 1564.01 854C1563.54 854 1562.84 855.462 1562.46 857.25ZM58.2501 862.496C55.6261 865.477 57.9221 874.402 60.8481 872.594C62.7581 871.413 62.1181 860.921 60.1431 861.038C59.7891 861.059 58.9381 861.715 58.2501 862.496ZM960.75 868.749C957.672 869.448 959.306 877 962.535 877C963.574 877 964 875.853 964 873.059C964 868.823 963.477 868.13 960.75 868.749ZM1083.49 876.25C1081.03 883.038 1080.05 886.38 1080.4 886.731C1081.03 887.362 1090 885.87 1089.99 885.136C1089.96 884.093 1087.55 877.599 1086.68 876.25C1086.24 875.563 1085.44 875 1084.91 875C1084.38 875 1083.73 875.563 1083.49 876.25ZM62.6671 890.667C62.3001 891.033 62.0001 893.321 62.0001 895.75C62.0001 901.823 64.3981 900.901 64.8051 894.672C65.0851 890.374 64.3451 888.988 62.6671 890.667ZM961.75 899.689C959.688 900.228 959.618 900.992 961.158 906.134C962.961 912.152 964.374 911.379 965.516 903.75C966.258 898.795 966.046 898.567 961.75 899.689ZM1687.64 918.625C1685.96 922.148 1685.79 922.236 1681.39 921.741C1678.73 921.441 1675.95 920.362 1674.62 919.116C1671.44 916.125 1670.81 916.463 1671.59 920.75C1672.38 925.144 1672.84 925.87 1673.83 924.271C1674.37 923.4 1675.63 923.373 1678.75 924.165C1681.08 924.756 1684.18 924.884 1685.72 924.452C1687.25 924.024 1689.06 923.767 1689.75 923.881C1690.6 924.021 1691 922.622 1691 919.544C1691 914.058 1689.96 913.772 1687.64 918.625ZM473.322 936.146C473.672 945.026 474.139 952.472 474.359 952.693C474.58 952.913 477.852 952.583 481.63 951.958C494.546 949.824 493.227 951.029 492.446 942.079C492.07 937.761 491.245 931.364 490.615 927.864L489.467 921.5H482.233C478.254 921.5 474.999 921.163 474.999 920.75C475 920.337 474.48 920 473.843 920C472.989 920 472.853 924.224 473.322 936.146ZM1083.4 924.972C1080.39 929.516 1080.87 931.006 1085.31 930.985C1090.25 930.961 1091.11 929.998 1089.96 925.805C1088.51 920.58 1086.48 920.321 1083.4 924.972ZM62.0001 927.81C62.0001 930.465 62.5111 931.982 63.5381 932.376C65.5721 933.157 66.5471 930.455 65.4021 927.215C63.9011 922.97 62.0001 923.302 62.0001 927.81ZM301.323 927.601C300.57 929.564 303.117 931.414 304.208 929.697C305.454 927.738 305.106 926 303.469 926C302.626 926 301.661 926.72 301.323 927.601ZM322.18 928.172C322.652 931.373 325 931.716 325 928.583C325 926.903 324.451 926 323.43 926C322.388 926 321.968 926.729 322.18 928.172ZM965.25 944.706C962.654 945.206 962.587 945.76 964.317 952.433C966.457 960.686 967.974 959.616 969.542 948.75C970.267 943.723 970.282 943.737 965.25 944.706ZM60.3751 956.125C60.7191 957.844 61.0001 960.094 61.0001 961.125C61.0001 962.156 61.6751 963 62.5001 963C63.5411 963 64.0001 961.954 64.0001 959.582C64.0001 955.09 63.1321 953 61.2681 953C60.1011 953 59.8951 953.723 60.3751 956.125ZM325.55 956.655C325.119 958.374 325.34 959.592 326.178 960.11C327.87 961.156 329.317 958.574 328.494 955.98C327.617 953.219 326.339 953.512 325.55 956.655ZM302 956.418C302 958.587 303.11 961 304.107 961C304.598 961 305 959.65 305 958C305 956 304.5 955 303.5 955C302.675 955 302 955.638 302 956.418ZM1084.2 964.527C1081.47 970.139 1081.32 972.505 1083.75 971.466C1084.71 971.054 1086.74 970.504 1088.26 970.243C1089.78 969.983 1091.3 969.332 1091.63 968.798C1092.44 967.474 1088.98 960 1087.55 960C1086.92 960 1085.41 962.037 1084.2 964.527ZM888.17 973.17C888.39 974.723 889.167 975.5 890.5 975.5C893.478 975.5 893.181 971.596 890.17 971.17C888.231 970.895 887.895 971.231 888.17 973.17ZM488.849 972.484C488.583 972.75 485.316 973.034 481.589 973.115L474.812 973.262L475.361 977.381C475.662 979.646 476.208 986.337 476.574 992.25L477.239 1003H481.177C483.342 1003 487.173 1002.48 489.688 1001.85L494.262 1000.7L493.602 992.598C492.368 977.478 490.741 970.592 488.849 972.484ZM61.0001 990.073C61.0001 993.228 61.3501 994.074 62.5531 993.823C63.4071 993.645 64.0821 993.163 64.0531 992.75C64.0241 992.337 64.0001 990.65 64.0001 989C64.0001 987 63.5001 986 62.5001 986C61.4121 986 61.0001 987.119 61.0001 990.073ZM303 989.393C303 991.454 303.576 993.007 304.468 993.349C306.433 994.103 306.858 993.134 306.267 989.25C305.591 984.803 303 984.916 303 989.393ZM325.667 986.667C324.315 988.018 324.971 993 326.5 993C327.548 993 328 991.944 328 989.5C328 986.191 327.161 985.172 325.667 986.667ZM887.7 990.341C887.417 991.078 887.517 992.218 887.922 992.875C888.948 994.535 892.25 993.095 891.557 991.289C891.251 990.49 891 989.648 891 989.418C891 988.356 888.156 989.151 887.7 990.341ZM967.487 992.386C965.869 993.569 965.731 994.325 966.546 997.56C968.233 1004.26 970.674 1002.86 972.326 994.25C972.842 991.565 972.64 991 971.166 991C970.185 991 968.529 991.624 967.487 992.386ZM1085.54 1003.93C1084.14 1006.68 1083 1009.23 1083 1009.6C1083 1010.37 1090.88 1009.46 1091.74 1008.59C1092.5 1007.83 1090.22 1000.25 1089.01 999.505C1088.49 999.187 1086.93 1001.18 1085.54 1003.93ZM887.393 1007.42C886.534 1009.66 887.846 1014.22 889.215 1013.76C891.386 1013.04 892.567 1010.12 891.423 1008.31C889.932 1005.94 888.113 1005.54 887.393 1007.42Z" fill="#FF8437"/>
</svg>
