<svg width="1792" height="1024" viewBox="0 0 1792 1024" fill="none" xmlns="http://www.w3.org/2000/svg">
<path fill-rule="evenodd" clip-rule="evenodd" d="M940 388.5C940 392.963 941.226 394.459 942.393 391.418C943.579 388.327 943.058 384 941.5 384C940.389 384 940 385.167 940 388.5ZM941.19 416.75C941.36 418.813 941.95 420.5 942.5 420.5C943.05 420.5 943.64 418.813 943.81 416.75C944.052 413.832 943.761 413 942.5 413C941.239 413 940.948 413.832 941.19 416.75ZM942 445.5C942 448.833 942.389 450 943.5 450C945.058 450 945.579 445.673 944.393 442.582C943.226 439.541 942 441.037 942 445.5ZM1141.61 472.582C1140.55 475.346 1140.95 478 1142.43 478C1144.15 478 1145.29 474.923 1144.42 472.641C1143.62 470.564 1142.39 470.538 1141.61 472.582ZM943 475.918C943 480.375 943.79 483 945.132 483C945.638 483 945.97 480.525 945.871 477.5C945.745 473.647 945.288 472 944.346 472C943.447 472 943 473.302 943 475.918ZM1095 477C1095 479.889 1095.38 481.039 1096.25 480.75C1096.94 480.521 1097.5 478.833 1097.5 477C1097.5 475.167 1096.94 473.479 1096.25 473.25C1095.38 472.961 1095 474.111 1095 477ZM1141.67 502.667C1140.8 503.535 1140.8 512.466 1141.67 513.336C1142.04 513.703 1143.16 513.259 1144.17 512.347C1146.3 510.418 1146.51 506.259 1144.61 503.75C1143.16 501.838 1142.67 501.66 1141.67 502.667ZM941.667 505.667C940.45 506.883 940.977 514.586 942.41 516.546C943.735 518.359 943.862 518.255 944.507 514.816C945.602 508.975 943.886 503.447 941.667 505.667ZM1093.5 512C1092.76 514.334 1093.72 518 1095.07 518C1095.58 518 1096 516.912 1096 515.582C1096 514.252 1096.27 512.452 1096.61 511.582C1097 510.562 1096.67 510 1095.67 510C1094.83 510 1093.85 510.9 1093.5 512ZM496 527.917C496 533.194 497.515 534.781 498.564 530.602C499.391 527.305 498.755 523.74 497.25 523.245C496.36 522.952 496 524.297 496 527.917ZM482 534.5C482 538.589 482.348 540.051 483.25 539.75C484.02 539.493 484.5 537.478 484.5 534.5C484.5 531.522 484.02 529.507 483.25 529.25C482.348 528.949 482 530.411 482 534.5ZM465 535.917C465 539.848 465.352 541 466.555 541C467.783 541 468.046 540.018 467.805 536.328C467.37 529.656 465 529.309 465 535.917ZM1144 533.941C1144 535.559 1144.48 537.179 1145.07 537.541C1146.43 538.385 1146.59 538.161 1147.33 534.25C1147.86 531.472 1147.66 531 1145.97 531C1144.46 531 1144 531.679 1144 533.941ZM451.193 537.25C451.362 539.587 451.95 541.5 452.5 541.5C453.05 541.5 453.638 539.587 453.807 537.25C454.052 533.877 453.782 533 452.5 533C451.218 533 450.948 533.877 451.193 537.25ZM1092 537.917C1092 540.163 1092.45 542 1093 542C1093.55 542 1094 540.65 1094 539C1094 537.35 1094.03 535.674 1094.07 535.275C1094.12 534.876 1093.67 534.389 1093.07 534.192C1092.42 533.975 1092 535.449 1092 537.917ZM945.459 544.428C944.734 549.262 945.28 552 946.969 552C947.54 552 948 549.768 948 547C948 544.25 948.034 541.674 948.075 541.275C948.116 540.876 947.698 540.399 947.145 540.215C946.593 540.031 945.834 541.927 945.459 544.428ZM1143.11 554.799C1141.89 557.071 1141.62 562.284 1142.66 563.325C1145.01 565.672 1147.19 557.422 1145.09 554.115C1144.39 553.004 1144 553.139 1143.11 554.799ZM451.441 557.292C450.312 560.237 451.422 565.469 453.25 565.815C454.677 566.086 455 565.418 455 562.196C455 557.904 452.519 554.485 451.441 557.292ZM487 561.927C487 565.741 487.368 567 488.481 567C491.579 567 491.832 557.774 488.75 557.187C487.269 556.905 487 557.635 487 561.927ZM1092.69 557.646C1091.66 558.676 1091.86 566.795 1092.93 567.457C1094.27 568.287 1094.77 567.073 1095.13 562.073C1095.43 557.974 1094.34 555.998 1092.69 557.646ZM471.667 558.667C470.373 559.96 470.985 565.78 472.474 566.351C474.885 567.277 476.027 563.953 474.387 560.781C472.836 557.782 472.676 557.657 471.667 558.667ZM497 574.427C497 578.1 497.518 578.592 499.837 577.122C501.686 575.95 500.888 571.594 498.75 571.187C497.348 570.92 497 571.563 497 574.427ZM746.623 573.54C745.531 576.385 745.951 579 747.5 579C748.325 579 749.067 578.1 749.15 577C749.232 575.9 749.345 574.475 749.4 573.833C749.559 571.983 747.312 571.745 746.623 573.54ZM945.623 575.54C944.671 578.021 944.882 584.809 945.931 585.457C947.291 586.298 947.749 585.085 948.145 579.588C948.498 574.702 946.918 572.165 945.623 575.54ZM1142.19 590.75C1142.36 592.813 1142.95 594.5 1143.5 594.5C1144.05 594.5 1144.64 592.813 1144.81 590.75C1145.05 587.832 1144.76 587 1143.5 587C1142.24 587 1141.95 587.832 1142.19 590.75ZM490.161 591.7C488.878 594.096 489.856 599 491.617 599C492.531 599 493 597.813 493 595.5C493 593.575 493.034 591.674 493.075 591.275C493.24 589.678 491.074 589.994 490.161 591.7ZM1092 596C1092 599.958 1093.53 601.401 1094.64 598.498C1095.39 596.531 1094.24 592 1092.98 592C1092.44 592 1092 593.8 1092 596ZM475.466 594.228C474.574 596.554 475.348 603.5 476.5 603.5C477.864 603.5 478.383 594.983 477.097 593.697C476.388 592.988 475.878 593.155 475.466 594.228ZM460.46 599.065C459.563 600.517 460.858 607 462.045 607C462.57 607 463 604.975 463 602.5C463 598.228 461.898 596.738 460.46 599.065ZM745.667 598.667C745.3 599.033 745 600.608 745 602.167C745 605.727 747.705 606.022 748.575 602.557C749.44 599.112 747.635 596.698 745.667 598.667ZM450.25 601.496C448.713 603.242 448.604 608.637 450.087 609.554C451.709 610.557 452.715 608.987 453.485 604.25C454.218 599.739 452.834 598.561 450.25 601.496ZM943.607 609.582C942.731 611.865 942.888 616.276 943.904 617.878C945.305 620.092 946.791 618.305 946.493 614.763C946.343 612.968 946.17 610.712 946.11 609.75C945.973 607.569 944.42 607.464 943.607 609.582ZM1140.67 614.667C1139.81 615.528 1139.8 621.466 1140.66 622.325C1141.98 623.649 1144 620.663 1144 617.378C1144 614.2 1142.42 612.914 1140.67 614.667ZM1090.61 616.814C1089.74 618.224 1091.48 627.525 1092.51 627C1094.05 626.223 1093.94 616 1092.39 616C1091.69 616 1090.89 616.366 1090.61 616.814ZM747 625C747 627.889 747.383 629.039 748.25 628.75C748.938 628.521 749.5 626.833 749.5 625C749.5 623.167 748.938 621.479 748.25 621.25C747.383 620.961 747 622.111 747 625ZM452.21 626.261C451.651 626.942 451.038 628.85 450.847 630.5C450.306 635.174 453.313 634.445 454.081 629.715C454.731 625.716 453.906 624.193 452.21 626.261ZM463.526 633.25C464.398 638.529 464.444 638.574 467.476 637.193C470.135 635.982 470.051 634.078 467.193 630.75C464.356 627.447 462.749 628.543 463.526 633.25ZM481.185 635.664C481.468 639.117 481.75 639.465 484 639.152C487.06 638.726 487.794 638.113 486.337 637.196C485.729 636.813 485.062 635.605 484.854 634.511C484.647 633.418 483.665 632.367 482.673 632.176C481.147 631.882 480.918 632.418 481.185 635.664ZM493.184 640.673C493.358 642.143 494.007 643.512 494.627 643.715C496.272 644.254 497.228 640.98 495.895 639.373C494.077 637.183 492.841 637.776 493.184 640.673ZM1143.62 642.54C1142.67 645.021 1142.88 651.809 1143.93 652.457C1145.29 653.299 1145.75 652.08 1146.15 646.598C1146.5 641.719 1144.92 639.173 1143.62 642.54ZM944.2 647.671C944.591 655.065 946.571 655.791 947.252 648.79C947.735 643.818 947.073 642.061 944.7 642.015C944.26 642.007 944.035 644.552 944.2 647.671ZM1090 648.417C1090 650.938 1090.45 653 1091 653C1092.72 653 1092.91 644.804 1091.2 644.235C1090.38 643.961 1090 645.288 1090 648.417ZM747 650C747 652.2 747.441 654 747.981 654C749.237 654 750.394 649.469 749.639 647.502C748.525 644.599 747 646.042 747 650ZM401.43 655.322C400.481 657.795 401.433 665.323 402.75 665.756C403.649 666.051 404 664.614 404 660.642C404 655.304 402.571 652.347 401.43 655.322ZM485 660.335C485 662.261 484.709 664.594 484.354 665.52C483.867 666.79 484.173 667.111 485.604 666.83C487.129 666.53 487.493 665.594 487.465 662.05C487.445 659.508 486.917 657.472 486.215 657.238C485.416 656.972 485 658.031 485 660.335ZM460.194 668.148C460.362 671.092 460.95 673.388 461.5 673.25C463.026 672.868 462.748 663.749 461.194 663.231C460.204 662.901 459.962 664.092 460.194 668.148ZM470 667.5C470 670.833 470.389 672 471.5 672C472.611 672 473 670.833 473 667.5C473 664.167 472.611 663 471.5 663C470.389 663 470 664.167 470 667.5ZM747 666.5C747 667.875 746.92 669.337 746.821 669.75C746.723 670.163 747.398 670.645 748.321 670.823C749.64 671.077 750 670.381 750 667.573C750 665.064 749.553 664 748.5 664C747.567 664 747 664.944 747 666.5ZM1141.67 665.667C1141.3 666.033 1141 668.321 1141 670.75C1141 676.823 1143.4 675.901 1143.81 669.672C1144.09 665.374 1143.34 663.988 1141.67 665.667ZM446.035 671.934C444.742 674.351 444.673 681 445.941 681C447.294 681 447.661 680.079 448.434 674.75C449.157 669.762 447.954 668.35 446.035 671.934ZM944.409 672.377C943.46 674.851 944.459 683.33 945.75 683.755C946.665 684.056 947 682.403 947 677.583C947 671.474 945.733 668.927 944.409 672.377ZM1090.53 672.067C1089.43 674.916 1089.48 679.275 1090.62 679.68C1092.1 680.208 1093.24 674.254 1092.06 672.152C1091.23 670.676 1091.07 670.667 1090.53 672.067ZM1219.19 674.673C1219.63 679.948 1222 680.294 1222 675.083C1222 672.05 1221.6 671 1220.44 671C1219.25 671 1218.95 671.879 1219.19 674.673ZM1196.38 681.442C1195.64 683.371 1196.26 686.058 1197.5 686.303C1198.05 686.411 1198.64 685.038 1198.81 683.25C1199.13 679.964 1197.44 678.702 1196.38 681.442ZM402.838 686.574C402.633 689.146 402.958 691.55 403.579 692.065C405.322 693.512 406 692.047 406 686.833C406 683.358 405.607 682 404.601 682C403.659 682 403.083 683.495 402.838 686.574ZM838.022 688.25C838.036 690.921 838.771 693.429 840 695L841.956 697.5L841.978 693.315C842.003 688.574 840.553 684 839.025 684C838.461 684 838.01 685.913 838.022 688.25ZM746.668 689.656C746.052 693.455 746.454 695 748.059 695C748.577 695 749 692.975 749 690.5C749 685.089 747.498 684.545 746.668 689.656ZM800.39 689.427C799.597 691.493 800.329 695.5 801.5 695.5C802.05 695.5 802.64 693.813 802.81 691.75C803.117 688.045 801.511 686.504 800.39 689.427ZM1141.67 689.667C1140.66 690.673 1140.87 701 1141.89 701C1143.25 701 1144 698.308 1144 693.418C1144 689.292 1143.25 688.084 1141.67 689.667ZM1219.19 695.25C1219.36 697.038 1219.95 698.5 1220.5 698.5C1221.05 698.5 1221.64 697.038 1221.81 695.25C1222.05 692.787 1221.73 692 1220.5 692C1219.27 692 1218.95 692.787 1219.19 695.25ZM450.607 695.582C449.619 698.157 449.914 702.829 451.112 703.569C452.683 704.54 454.024 701.944 453.347 699.245C453.033 697.996 453.332 696.305 454.011 695.487C455.034 694.255 454.9 694 453.229 694C452.121 694 450.941 694.712 450.607 695.582ZM1090.68 695.652C1089.84 696.496 1089.78 703.274 1090.6 705.412C1091.65 708.15 1093 706.047 1092.98 701.691C1092.97 697.35 1091.87 694.465 1090.68 695.652ZM1197 703.417C1197 707.135 1198.89 708.524 1199.15 705C1199.23 703.9 1199.35 702.475 1199.4 701.833C1199.46 701.192 1198.94 700.479 1198.25 700.25C1197.4 699.968 1197 700.994 1197 703.417ZM468 705.5C468 708.544 468.318 709 470.441 709C473.967 709 474.549 707.213 471.93 704.426C468.843 701.139 468 701.37 468 705.5ZM482.607 705.582C481.291 709.01 481.94 712 484 712C486.086 712 486.474 710.37 485.37 706.25C484.666 703.624 483.469 703.335 482.607 705.582ZM747.18 707.25C747.356 708.487 747.95 709.5 748.5 709.5C749.05 709.5 749.644 708.487 749.82 707.25C750.039 705.702 749.628 705 748.5 705C747.372 705 746.961 705.702 747.18 707.25ZM494 709.583C494 712.006 494.405 713.032 495.25 712.75C495.938 712.521 496.455 711.808 496.4 711.167C496.345 710.525 496.233 709.1 496.15 708C495.886 704.476 494 705.865 494 709.583ZM946.683 707.65C945.642 708.691 945.869 716.524 947.028 719.574C948.568 723.624 949.377 721.74 949.103 714.743C948.864 708.642 948.057 706.276 946.683 707.65ZM1219 713.883C1219 716.879 1219.38 718.034 1220.25 717.724C1221.71 717.208 1221.56 712.158 1220.04 710.64C1219.32 709.92 1219 710.918 1219 713.883ZM404.402 712.395C403.49 714.772 404.433 721.323 405.75 721.756C406.65 722.052 407 720.602 407 716.583C407 711.349 405.643 709.161 404.402 712.395ZM1143.67 716.667C1142.6 717.736 1142.9 728 1144 728C1144.56 728 1145 725.333 1145 722C1145 715.946 1144.88 715.456 1143.67 716.667ZM1091.16 719.24C1089.74 720.657 1089.6 732 1091 732C1092.13 732 1092.27 731.117 1092.02 725.699C1091.92 723.609 1092.35 721.286 1092.97 720.538C1094.38 718.837 1092.74 717.66 1091.16 719.24ZM800.19 722.75C800.36 724.813 800.95 726.5 801.5 726.5C802.05 726.5 802.64 724.813 802.81 722.75C803.052 719.832 802.761 719 801.5 719C800.239 719 799.948 719.832 800.19 722.75ZM1197.64 719.694C1196.67 720.662 1196.87 726.804 1197.9 727.435C1198.98 728.105 1200 725.699 1200 722.477C1200 720.037 1198.76 718.574 1197.64 719.694ZM841 725.083C841 730.294 843.365 729.948 843.81 724.673C844.046 721.879 843.747 721 842.56 721C841.401 721 841 722.05 841 725.083ZM1219 733.917C1219 736.95 1219.4 738 1220.56 738C1221.75 738 1222.05 737.121 1221.81 734.327C1221.37 729.052 1219 728.706 1219 733.917ZM489 732.918C489 735.531 490.024 738 491.107 738C491.598 738 492 736.425 492 734.5C492 732.056 491.548 731 490.5 731C489.675 731 489 731.863 489 732.918ZM477.686 732.701C477.415 733.141 477.043 735.264 476.857 737.42C476.458 742.07 478.608 743.589 479.547 739.321C479.888 737.769 480.328 735.97 480.524 735.323C480.951 733.917 478.393 731.554 477.686 732.701ZM946.639 736.694C945.827 737.507 945.802 747.319 946.607 749.418C947.959 752.942 949 750.611 949 744.059C949 737.626 948.201 735.133 946.639 736.694ZM1196.67 736.667C1196.3 737.033 1196 738.833 1196 740.667C1196 742.963 1196.47 744 1197.5 744C1198.58 744 1199 742.889 1199 740C1199 736.247 1198.21 735.121 1196.67 736.667ZM404.639 737.694C403.838 738.495 403.831 743.769 404.627 746.739C405.613 750.417 407 748.232 407 743C407 738.382 406.061 736.272 404.639 737.694ZM1145 743.858C1145 749.926 1146.53 753.044 1147.42 748.791C1148.25 744.861 1147.56 738.685 1146.25 738.249C1145.34 737.947 1145 739.483 1145 743.858ZM461 744.583C461 750.485 463.368 750.139 463.807 744.172C464.046 740.93 463.768 740 462.557 740C461.374 740 461 741.101 461 744.583ZM1219.92 744.25C1219.88 744.388 1219.65 747.538 1219.41 751.25C1218.98 757.761 1220.13 760.383 1221.37 755.75C1222.34 752.118 1222.09 744 1221 744C1220.45 744 1219.96 744.112 1219.92 744.25ZM445.63 748.25C444.689 751.763 444.896 758 445.955 758C446.48 758 447.181 756.313 447.512 754.25C447.844 752.188 448.323 749.487 448.577 748.25C448.881 746.767 448.56 746 447.636 746C446.864 746 445.962 747.013 445.63 748.25ZM136.5 751.195C133.522 752.884 133.032 754.026 133.015 759.317C133.001 763.847 133.134 764.095 135.25 763.466C138.701 762.441 140 760.073 140 754.809C140 749.72 139.681 749.391 136.5 751.195ZM802.683 750.65C802.308 751.026 802 753.096 802 755.25C802 760.11 804.344 759.94 804.823 755.046C805.145 751.753 803.978 749.355 802.683 750.65ZM839 755.917C839 761.152 839.822 762.124 842.017 759.48C843.491 757.704 842.238 751.913 840.235 751.245C839.363 750.954 839 752.327 839 755.917ZM1197.43 753.443C1196.74 756.162 1197.64 758.343 1199.07 757.457C1200.31 756.689 1200.27 751 1199.02 751C1198.48 751 1197.76 752.099 1197.43 753.443ZM112 760C112 762.75 112.188 765 112.418 765C112.648 765 113.517 765.261 114.349 765.58C115.449 766.003 116.151 765.117 116.925 762.33C118.663 756.074 118.381 755 115 755C112.067 755 112 755.111 112 760ZM1430 761.417C1430 764 1430.44 765 1431.56 765C1432.72 765 1433.04 764.172 1432.81 761.827C1432.36 757.243 1430 756.898 1430 761.417ZM405 768.417C405 772.797 405.335 774 406.552 774C407.794 774 408.044 772.966 407.802 768.829C407.369 761.422 405 761.073 405 768.417ZM1546.5 764.991C1545.82 767.138 1546.54 769 1548.06 769C1548.58 769 1549 767.65 1549 766C1549 762.605 1547.46 761.982 1546.5 764.991ZM1569.64 764.694C1568.35 765.982 1569 770 1570.5 770C1571.42 770 1572 769.062 1572 767.559C1572 765.05 1570.77 763.56 1569.64 764.694ZM947.446 771.509C946.99 774.555 947.178 776.51 948.028 777.533C949.804 779.674 950.164 778.904 950.344 772.574C950.539 765.687 948.435 764.913 947.446 771.509ZM445.435 772.492C444.709 776.366 445.578 779.866 446.906 778.417C447.369 777.913 447.986 775.587 448.279 773.25C448.95 767.875 446.428 767.203 445.435 772.492ZM459.723 773.611C458.572 774.761 458.886 779.486 460.2 780.8C462.116 782.716 463 782.208 463 779.191C463 776.102 460.866 772.468 459.723 773.611ZM475.631 776.702C475.284 777.049 475 778.64 475 780.236C475 782.675 475.36 783.088 477.25 782.82C480.206 782.4 480.845 778.523 478.192 777.103C477.131 776.535 475.979 776.355 475.631 776.702ZM805.61 779.107C804.285 783.332 804.228 786.929 805.46 788.614C806.717 790.334 806.862 790.211 807.366 786.987C807.982 783.057 807.701 779.367 806.711 778.377C806.346 778.012 805.85 778.341 805.61 779.107ZM845 784.083C845 789.294 847.365 788.948 847.81 783.673C848.046 780.879 847.747 780 846.56 780C845.401 780 845 781.05 845 784.083ZM1430.04 782.928C1428.95 784.958 1429.59 788 1431.11 788C1431.6 788 1432 786.425 1432 784.5C1432 780.532 1431.52 780.151 1430.04 782.928ZM227.667 783.667C227.3 784.033 227 786.058 227 788.167C227 793.018 229.554 793.476 230.254 788.75C230.943 784.1 229.692 781.642 227.667 783.667ZM491.19 786.75C491.439 789.762 491.943 790.563 493.75 790.82C495.535 791.073 495.993 790.66 495.968 788.82C495.931 786.143 493.831 783 492.079 783C491.304 783 490.989 784.327 491.19 786.75ZM1569.77 785.435C1569.32 787.787 1570.42 790.934 1571.35 789.971C1571.86 789.448 1572.29 786.183 1572.11 784.25C1571.91 782.065 1570.25 782.905 1569.77 785.435ZM1632.76 785.457C1632.19 788.452 1634.51 792.506 1635.37 790C1636.18 787.608 1635.6 783.7 1634.38 783.291C1633.76 783.085 1633.03 784.06 1632.76 785.457ZM208.683 784.65C208.308 785.026 208 787.321 208 789.75C208 795.304 210.351 795.13 210.818 789.541C211.13 785.81 210.034 783.299 208.683 784.65ZM1546.58 786.546C1545.9 789.233 1546.49 791 1548.06 791C1548.58 791 1549 789.425 1549 787.5C1549 783.43 1547.51 782.842 1546.58 786.546ZM404 794C404 797.689 404.358 799.047 405.25 798.75C405.994 798.502 406.5 796.578 406.5 794C406.5 791.422 405.994 789.498 405.25 789.25C404.358 788.953 404 790.311 404 794ZM135.29 792.907C133.86 795.197 134.679 801.489 136.616 803.097C138.494 804.655 139.201 802.511 138.81 796.451C138.472 791.229 137.162 789.91 135.29 792.907ZM113.688 792.646C112.646 793.687 112.895 802.293 114.015 804C115.658 806.503 117.058 803.227 116.76 797.579C116.518 792.989 115.299 791.034 113.688 792.646ZM946.241 799.986C944.721 802.419 944.602 809.636 946.067 810.541C947.621 811.502 947.775 811.112 948.552 804.244C949.274 797.864 948.479 796.401 946.241 799.986ZM1569.58 799.083C1568.45 802.392 1568.61 806 1569.89 806C1571.11 806 1571.99 799.715 1570.93 798.583C1570.42 798.038 1569.87 798.241 1569.58 799.083ZM1430 802.941C1430 804.559 1430.44 806.152 1430.97 806.482C1432.13 807.2 1433.47 802.567 1432.54 801.057C1431.29 799.049 1430 800.01 1430 802.941ZM1632 805.335C1632 808.528 1632.95 811 1634.17 811C1635.57 811 1634.71 803.725 1633.25 803.244C1632.47 802.989 1632 803.781 1632 805.335ZM1547 807C1547 809 1547.5 810 1548.5 810C1549.5 810 1550 809 1550 807C1550 805 1549.5 804 1548.5 804C1547.5 804 1547 805 1547 807ZM487.667 805.667C487.3 806.033 487 808.508 487 811.167C487 814.796 487.374 816 488.5 816C489.652 816 490 814.722 490 810.5C490 805.405 489.326 804.008 487.667 805.667ZM803.543 807.25C802.212 811.469 802.469 815.114 804.209 816.689C806.009 818.318 806.066 818.165 805.886 812.188C805.718 806.567 804.541 804.087 803.543 807.25ZM844.683 807.65C844.308 808.026 844 810.771 844 813.75C844 820.716 846.359 820.534 846.81 813.532C847.108 808.92 846.127 806.206 844.683 807.65ZM472.75 812.71C470.545 815.164 470.4 820 472.531 820C474.483 820 475.226 818.044 474.82 813.977C474.507 810.836 474.46 810.808 472.75 812.71ZM208 818C208 820.889 208.417 822 209.5 822C210.583 822 211 820.889 211 818C211 815.111 210.583 814 209.5 814C208.417 814 208 815.111 208 818ZM1568.41 816.498C1567.66 819.477 1568.58 822.378 1569.99 821.504C1571.29 820.703 1571.31 814 1570.02 814C1569.48 814 1568.76 815.124 1568.41 816.498ZM405.2 821.512C405.365 824.543 405.95 827.023 406.5 827.023C407.05 827.023 407.635 824.543 407.8 821.512C408.045 817.001 407.809 816 406.5 816C405.191 816 404.955 817.001 405.2 821.512ZM456.639 816.694C455.309 818.025 455.988 823 457.5 823C458.493 823 459 822.007 459 820.059C459 817.124 457.85 815.484 456.639 816.694ZM445.441 819.379C444.631 822.605 445.27 827.5 446.5 827.5C447.538 827.5 448.885 820.154 448.215 818.144C447.569 816.207 446.069 816.875 445.441 819.379ZM4 822.418C4 827.771 4.745 828.895 7.76 828.089C9.534 827.615 10.647 826.431 11.188 824.443C12.342 820.21 11.529 819 7.531 819C4.178 819 4 819.173 4 822.418ZM1429.18 823.644C1429.36 825.765 1429.95 827.388 1430.5 827.25C1431.99 826.878 1431.71 820.737 1430.18 820.228C1429.21 819.904 1428.95 820.803 1429.18 823.644ZM1548 823C1548 824.65 1548.4 826 1548.89 826C1550.16 826 1551.05 823.28 1550.36 821.5C1549.39 818.959 1548 819.839 1548 823ZM20 827.375C20 831.338 20.228 831.75 22.423 831.75C24.163 831.75 25.02 831.057 25.463 829.29C26.414 825.504 25.207 823 22.433 823C20.226 823 20 823.407 20 827.375ZM1568 828.5C1568 829.962 1568.57 831 1569.38 831C1570.14 831 1570.98 829.875 1571.24 828.5C1571.62 826.558 1571.31 826 1569.86 826C1568.54 826 1568 826.729 1568 828.5ZM1631.19 830.25C1631.36 832.038 1631.95 833.5 1632.5 833.5C1633.05 833.5 1633.64 832.038 1633.81 830.25C1634.05 827.787 1633.73 827 1632.5 827C1631.27 827 1630.95 827.787 1631.19 830.25ZM943.43 831.322C942.481 833.795 943.433 841.323 944.75 841.756C945.649 842.051 946 840.614 946 836.642C946 831.304 944.571 828.347 943.43 831.322ZM1549 833.917C1549 835.612 1549.45 837 1550 837C1550.55 837 1551 836.1 1551 835C1551 833.9 1551.03 832.674 1551.07 832.275C1551.12 831.876 1550.67 831.389 1550.07 831.192C1549.46 830.988 1549 832.162 1549 833.917ZM801.688 832.646C800.683 833.651 800.876 840.256 801.961 841.971C803.406 844.256 804.286 842.497 804.286 837.321C804.286 832.891 803.27 831.063 801.688 832.646ZM135.633 836.086C134.595 841.276 134.906 844.677 136.542 846.035C139.338 848.355 140.448 845.776 139.417 839.357C138.382 832.911 136.579 831.353 135.633 836.086ZM208.683 835.65C208.308 836.026 208 838.096 208 840.25C208 845.11 210.344 844.94 210.823 840.046C211.145 836.753 209.978 834.355 208.683 835.65ZM114 841.368C114 846.902 115.444 849.451 117.122 846.878C117.617 846.12 117.904 843.479 117.761 841.009C117.566 837.653 117.058 836.434 115.75 836.186C114.255 835.902 114 836.656 114 841.368ZM847 840.5C847 843.833 847.389 845 848.5 845C849.491 845 850 844.009 850 842.082C850 840.477 850.273 838.452 850.607 837.582C851.042 836.448 850.617 836 849.107 836C847.276 836 847 836.59 847 840.5ZM1431.21 840.25C1430.04 841.661 1430.76 847 1432.12 847C1432.6 847 1433 845.2 1433 843C1433 838.671 1432.79 838.344 1431.21 840.25ZM443.639 843.694C443.288 844.046 443 846.058 443 848.167C443 850.907 443.428 852 444.5 852C445.58 852 446 850.895 446 848.059C446 844.261 444.972 842.361 443.639 843.694ZM1632 846.917C1632 849.049 1632.48 850 1633.57 850C1634.68 850 1635.04 849.221 1634.82 847.327C1634.36 843.434 1632 843.091 1632 846.917ZM207.745 852.705C207.479 854.792 207.645 856.92 208.114 857.433C209.344 858.779 209.758 857.999 210.151 853.594C210.613 848.427 208.395 847.607 207.745 852.705ZM6.394 851.416C6.095 852.194 5.997 854.107 6.175 855.666C6.411 857.725 7.047 858.5 8.5 858.5C12.319 858.5 11.544 850.09 7.719 850.015C7.289 850.007 6.693 850.637 6.394 851.416ZM461.667 851.667C460.604 852.73 460.896 858.818 462.044 859.527C462.618 859.882 464.271 859.397 465.717 858.45C468.102 856.887 468.191 856.613 466.673 855.503C465.753 854.83 465 853.542 465 852.64C465 851.005 462.932 850.401 461.667 851.667ZM943.488 852.17C942.462 854.845 942.47 861.908 943.5 861.988C944.769 862.086 946.016 852.812 944.899 851.583C944.41 851.045 943.827 851.288 943.488 852.17ZM21.694 858.354C20.892 860.446 21.957 863.77 23.636 864.414C25.335 865.066 26.29 863.071 25.829 859.833C25.455 857.203 22.537 856.16 21.694 858.354ZM482 861.31C482 863.612 482.555 864.999 483.643 865.417C486.004 866.323 486.423 865.465 485.385 861.845C484.081 857.302 482 856.972 482 861.31ZM495 862C495 865.161 496.386 866.041 497.362 863.5C498.045 861.72 497.157 859 495.893 859C495.402 859 495 860.35 495 862ZM1429.99 862.167C1429.98 863.45 1429.7 865.513 1429.37 866.75C1428.88 868.578 1429.17 869 1430.94 869C1432.88 869 1433.08 868.539 1432.81 864.828C1432.48 860.409 1430.01 858.078 1429.99 862.167ZM807.667 862.667C806.656 863.677 806.869 873 807.902 873C809.029 873 811 867.496 811 864.351C811 862.136 809.138 861.195 807.667 862.667ZM849.667 863.667C849.3 864.033 849 866.283 849 868.667C849 871.852 849.397 873 850.5 873C851.633 873 852 871.778 852 868C852 863.353 851.293 862.04 849.667 863.667ZM1633.19 868.173C1633.64 872.757 1636 873.102 1636 868.583C1636 866 1635.56 865 1634.44 865C1633.28 865 1632.96 865.828 1633.19 868.173ZM114.683 873.65C114.308 874.026 114 876.733 114 879.667C114 883.741 114.354 885 115.5 885C117.143 885 117.278 884.419 117.017 878.5C116.836 874.398 115.894 872.439 114.683 873.65ZM1344 876.378C1344 880.498 1345.53 881.266 1346.24 877.506C1346.52 876.088 1346.13 874.526 1345.36 873.884C1344.26 872.967 1344 873.437 1344 876.378ZM1430 881C1430 883.889 1430.42 885 1431.5 885C1433.05 885 1433.53 881.547 1432.39 878.582C1431.28 875.67 1430 876.959 1430 881ZM942.541 883.934C941.647 885.38 943.06 897 944.129 897C944.608 897 945 894.3 945 891C945 887.7 945.034 884.674 945.075 884.275C945.199 883.079 943.232 882.815 942.541 883.934ZM497 890C497 892.2 497.45 894 498 894C499.117 894 499.174 893.825 499.555 889.25C499.744 886.989 499.396 886 498.413 886C497.431 886 497 887.221 497 890ZM1635 889.368C1635 891.301 1635.48 893.179 1636.07 893.541C1637.52 894.44 1637.76 894.043 1638.16 890.015C1638.42 887.323 1638.1 886.453 1636.75 886.192C1635.35 885.921 1635 886.558 1635 889.368ZM848.394 888.416C847.528 890.673 848.384 895.308 849.75 895.756C850.628 896.044 851 894.802 851 891.583C851 887.2 849.541 885.427 848.394 888.416ZM6.39 891.427C5.288 894.297 6.452 897.493 8.715 897.815C10.385 898.052 11.087 897.5 11.573 895.567C11.926 894.158 11.956 892.328 11.639 891.502C10.907 889.594 7.114 889.539 6.39 891.427ZM477.934 892.672C476.762 895.756 477.434 898.355 479.247 897.751C481.087 897.138 482.074 890 480.318 890C479.566 890 478.493 891.203 477.934 892.672ZM803.846 890.487C802.864 891.469 804.496 898.332 805.816 898.772C806.789 899.096 807.045 898.109 806.813 894.932C806.529 891.058 805.227 889.106 803.846 890.487ZM22.709 893.739C22.105 896.899 23.586 900.302 25.318 899.733C25.968 899.519 26.638 897.467 26.807 895.172C27.071 891.603 26.834 891 25.174 891C23.853 891 23.066 891.874 22.709 893.739ZM1706.68 893.65C1706.31 894.026 1706 895.421 1706 896.75C1706 899.518 1708.3 899.365 1708.84 896.561C1709.23 894.585 1707.74 892.588 1706.68 893.65ZM1343 897.5C1343 899.944 1343.45 901 1344.5 901C1346.11 901 1346.33 899.818 1345.37 896.25C1344.45 892.809 1343 893.573 1343 897.5ZM1430.83 898.25C1430.3 901.191 1430.91 904 1432.07 904C1432.58 904 1433 902.2 1433 900C1433 895.723 1431.5 894.515 1430.83 898.25ZM463.185 902.182C462.677 904.04 462.657 905.918 463.139 906.45C464.38 907.819 465.764 906.05 466.164 902.587C466.64 898.458 464.291 898.138 463.185 902.182ZM1723.75 903.524C1723.48 904.912 1723.66 906.289 1724.13 906.583C1725.62 907.501 1727 905.988 1727 903.441C1727 900.198 1724.37 900.265 1723.75 903.524ZM450.527 903.956C450.202 904.482 449.23 904.642 448.367 904.311C446.764 903.695 445.043 905.479 445.015 907.785C445.005 908.686 445.523 908.801 446.75 908.17C447.712 907.675 449.115 907.489 449.866 907.757C451.293 908.266 452.958 906.393 452.985 904.25C453.003 902.777 451.376 902.583 450.527 903.956ZM1635.69 904.646C1634.31 906.028 1634.95 913.768 1636.5 914.362C1637.7 914.82 1638 914.03 1638 910.469C1638 908.011 1638.03 905.674 1638.07 905.275C1638.18 904.258 1636.51 903.819 1635.69 904.646ZM848.639 911.028C847.477 914.678 847.22 920.018 848.178 920.61C850.556 922.08 852.076 914.25 850.038 911.028C849.219 909.732 849.052 909.732 848.639 911.028ZM1705.64 910.694C1704.83 911.503 1704.81 916.337 1705.6 918.412C1706.62 921.065 1708 919.103 1708 915C1708 911.253 1706.97 909.367 1705.64 910.694ZM807.58 913.083C806.434 916.43 806.612 921 807.889 921C809.257 921 810.296 913.896 809.103 912.703C808.387 911.987 807.915 912.104 807.58 913.083ZM941.667 912.667C940.839 913.494 940.813 923.699 941.63 926.75C942.908 931.519 944 928.64 944 920.5C944 912.698 943.457 910.876 941.667 912.667ZM116.194 919.069C116.381 922.293 117.008 924.51 117.806 924.773C118.794 925.099 119.037 923.92 118.806 919.931C118.619 916.707 117.992 914.49 117.194 914.227C116.206 913.901 115.963 915.08 116.194 919.069ZM1344.38 917.442C1343.59 919.517 1344.29 922.266 1345.75 922.75C1346.6 923.032 1347 922.005 1347 919.583C1347 916.003 1345.43 914.718 1344.38 917.442ZM1723 923.941C1723 927.871 1724.76 928.767 1726.01 925.476C1727.13 922.523 1726.6 921 1724.44 921C1723.51 921 1723 922.047 1723 923.941ZM1634.18 930.066C1634.35 931.87 1635.1 933.541 1635.82 933.78C1636.78 934.094 1637.05 933.303 1636.82 930.934C1636.65 929.13 1635.9 927.459 1635.18 927.22C1634.22 926.906 1633.95 927.697 1634.18 930.066ZM1705.72 930.687C1705.15 933.683 1705.75 936 1707.11 936C1707.6 936 1708 935.19 1708 934.2C1708 933.21 1708.5 931.899 1709.11 931.287C1709.73 930.675 1709.92 929.685 1709.55 929.087C1708.32 927.096 1706.24 927.966 1705.72 930.687ZM5.733 930.695C5.483 931.138 5.493 933.21 5.755 935.301C6.11 938.14 6.644 939.023 7.865 938.787C10.205 938.337 10.185 930.659 7.843 930.208C6.932 930.033 5.982 930.252 5.733 930.695ZM21.193 935.172C21.632 941.139 24 941.485 24 935.583C24 932.101 23.626 931 22.443 931C21.232 931 20.954 931.93 21.193 935.172ZM807 937.417C807 942.297 808.558 943.608 809.57 939.579C810.364 936.415 809.812 933.77 808.25 933.25C807.371 932.957 807 934.195 807 937.417ZM845.667 933.667C844.495 934.839 845.015 942.437 846.392 944.25C848.433 946.939 849.297 946.338 848.55 942.75C848.177 940.962 847.749 938.26 847.597 936.744C847.29 933.669 846.663 932.67 845.667 933.667ZM1723.39 939.427C1722.59 941.525 1723.34 945.53 1724.5 945.309C1725.69 945.081 1726.85 941.021 1726.22 939.25C1725.63 937.568 1724.07 937.666 1723.39 939.427ZM117.683 940.65C116.578 941.756 116.902 951.821 118.067 952.541C119.697 953.549 120.048 952.7 120.283 947.184C120.488 942.388 119.195 939.139 117.683 940.65ZM1344.19 943.673C1344.63 948.948 1347 949.294 1347 944.083C1347 941.05 1346.6 940 1345.44 940C1344.25 940 1343.95 940.879 1344.19 943.673ZM941.321 951.539C942.29 961.91 943.69 962.141 944.103 951.999C944.333 946.367 944.124 945.455 942.53 945.148C940.844 944.823 940.744 945.352 941.321 951.539ZM1635 949.417C1635 952 1635.44 953 1636.56 953C1637.72 953 1638.04 952.172 1637.81 949.827C1637.36 945.243 1635 944.898 1635 949.417ZM1704.67 947.667C1703.83 948.498 1703.8 952.315 1704.6 954.412C1705.63 957.081 1707 955.093 1707 950.941C1707 947.24 1706.21 946.127 1704.67 947.667ZM805.366 955.488C804.561 957.586 806.293 964.264 807.769 964.756C808.581 965.027 808.995 964.032 808.986 961.833C808.96 955.375 806.837 951.654 805.366 955.488ZM845.819 962.101C845.595 964.446 845.965 966.909 846.682 967.851C847.734 969.234 847.942 968.574 847.968 963.75C848.005 957.168 846.406 955.942 845.819 962.101ZM1722.64 959.694C1722.29 960.046 1722 961.833 1722 963.667C1722 965.963 1722.47 967 1723.5 967C1724.54 967 1725 965.951 1725 963.559C1725 960.194 1723.92 958.418 1722.64 959.694ZM1343.67 960.667C1343.3 961.033 1343 962.871 1343 964.75C1343 969.424 1345.4 968.503 1345.81 963.673C1346.1 960.261 1345.25 959.078 1343.67 960.667ZM1635.42 964.352C1634.53 966.663 1635.37 971.302 1636.75 971.756C1637.61 972.039 1638 970.914 1638 968.142C1638 964.014 1636.43 961.711 1635.42 964.352ZM941.688 968.646C940.655 969.678 940.86 978.796 941.931 979.457C943.291 980.298 943.749 979.085 944.145 973.588C944.475 969.017 943.426 966.907 941.688 968.646ZM1702 971.927C1702 974.881 1702.41 976 1703.5 976C1704.5 976 1705 975 1705 973C1705 971.35 1705.02 969.663 1705.05 969.25C1705.08 968.837 1704.41 968.355 1703.55 968.177C1702.35 967.926 1702 968.772 1702 971.927ZM1722.67 974.667C1721.66 975.668 1721.86 983 1722.89 983C1724.11 983 1725 980.433 1725 976.918C1725 974.123 1724.09 973.244 1722.67 974.667ZM1343.67 980.667C1343.3 981.033 1343 982.833 1343 984.667C1343 986.963 1343.47 988 1344.5 988C1345.58 988 1346 986.889 1346 984C1346 980.247 1345.21 979.121 1343.67 980.667ZM804.705 984.75C804.159 987.595 805.756 990.688 807.05 989.292C807.963 988.308 807.057 982 806.003 982C805.58 982 804.996 983.237 804.705 984.75ZM844.39 984.427C843.554 986.604 844.347 990.293 845.75 990.755C846.613 991.039 847 989.903 847 987.083C847 983.104 845.488 981.565 844.39 984.427ZM1636.61 985.582C1635.7 987.955 1635.88 992 1636.89 992C1638.05 992 1639 989.48 1639 986.418C1639 983.692 1637.53 983.178 1636.61 985.582ZM943.429 991.427C942.66 994.491 943.662 997.746 944.965 996.417C946.395 994.959 946.63 989.755 945.287 989.284C944.62 989.05 943.784 990.014 943.429 991.427ZM1702.67 989.667C1702.3 990.033 1702 991.871 1702 993.75C1702 998.424 1704.4 997.503 1704.81 992.673C1705.1 989.261 1704.25 988.078 1702.67 989.667ZM1343.02 1001.25C1343.02 1002.49 1343.45 1004.17 1343.97 1004.99C1345.38 1007.21 1346.95 1005.03 1346.31 1001.75C1345.66 998.448 1342.99 998.043 1343.02 1001.25ZM1721.68 999.65C1721.31 1000.03 1721 1001.65 1721 1003.25C1721 1006.72 1723.32 1006.56 1723.83 1003.06C1724.19 1000.64 1722.84 998.497 1721.68 999.65ZM1636 1004.94C1636 1006.56 1636.42 1008.14 1636.92 1008.45C1638.01 1009.13 1638.78 1006.25 1638.19 1003.75C1637.51 1000.92 1636 1001.74 1636 1004.94ZM1701.81 1007.52C1701 1008.33 1702.12 1013 1703.12 1013C1703.6 1013 1704 1011.65 1704 1010C1704 1007.24 1703.1 1006.23 1701.81 1007.52ZM942.549 1013.52C941.884 1017.96 942.923 1021 945.106 1021C946.278 1021 945.403 1009.63 944.199 1009.23C943.672 1009.06 942.929 1010.99 942.549 1013.52ZM1721.64 1012.69C1720.66 1013.67 1720.88 1020 1721.89 1020C1723.75 1020 1724.82 1013.62 1723.14 1012.59C1722.67 1012.29 1721.99 1012.34 1721.64 1012.69ZM1344 1015.58C1344 1018.72 1346.35 1018.37 1346.82 1015.17C1347.03 1013.73 1346.61 1013 1345.57 1013C1344.55 1013 1344 1013.9 1344 1015.58ZM1635.18 1019.57C1635.36 1021.65 1636.09 1023.54 1636.82 1023.78C1637.78 1024.1 1638.05 1023.21 1637.82 1020.43C1637.64 1018.35 1636.91 1016.46 1636.18 1016.22C1635.22 1015.9 1634.95 1016.79 1635.18 1019.57ZM1701 1022C1701 1024.37 1703.52 1024.68 1704.39 1022.42C1705.27 1020.12 1705.2 1020 1703 1020C1701.67 1020 1701 1020.67 1701 1022Z" fill="#FFCE75"/>
</svg>
