<svg width="1792" height="1024" viewBox="0 0 1792 1024" fill="none" xmlns="http://www.w3.org/2000/svg">
<path fill-rule="evenodd" clip-rule="evenodd" d="M1013 582.5C1013 584.944 1013.45 586 1014.5 586C1015.55 586 1016 584.944 1016 582.5C1016 580.056 1015.55 579 1014.5 579C1013.45 579 1013 580.056 1013 582.5ZM1056.67 579.667C1055.67 580.662 1055.89 585.287 1057.02 587C1058.49 589.251 1059.69 586.783 1059.19 582.513C1058.79 579.113 1058.05 578.279 1056.67 579.667ZM1472.71 587.663C1471.78 589.187 1471.61 593.465 1472.4 595.805C1473.7 599.681 1475.53 597.754 1475.16 592.909C1474.82 588.512 1473.69 586.076 1472.71 587.663ZM1505.2 589.2C1503.56 590.844 1503.59 599.304 1505.24 598.755C1506.69 598.269 1508.33 589.925 1507.19 588.785C1506.75 588.353 1505.86 588.54 1505.2 589.2ZM1057.4 604.999C1055.94 606.459 1056.93 613 1058.61 613C1059.59 613 1060 611.676 1060 608.5C1060 604.024 1059.31 603.092 1057.4 604.999ZM1013.6 609.844C1012.84 611.063 1014.11 618 1015.09 618C1016.18 618 1017.38 611.426 1016.54 610.065C1015.75 608.787 1014.32 608.679 1013.6 609.844ZM1506.67 633.667C1506.3 634.033 1506 636.058 1506 638.167C1506 642.651 1508.4 643.524 1509.43 639.415C1510.48 635.259 1508.72 631.613 1506.67 633.667ZM1057 640.5C1057 643.525 1057.42 646 1057.94 646C1059.09 646 1060.46 637.552 1059.54 636.071C1058.01 633.592 1057 635.354 1057 640.5ZM1468.67 635.667C1467.39 636.94 1468.01 640.789 1469.58 641.393C1471.96 642.307 1472 642.263 1472 638.5C1472 635.206 1470.45 633.886 1468.67 635.667ZM531 642.5C531 644.944 531.452 646 532.5 646C533.548 646 534 644.944 534 642.5C534 640.056 533.548 639 532.5 639C531.452 639 531 640.056 531 642.5ZM1014.18 644.567C1014.36 646.645 1015.09 648.54 1015.82 648.778C1016.78 649.096 1017.05 648.208 1016.82 645.433C1016.64 643.355 1015.91 641.46 1015.18 641.222C1014.22 640.904 1013.95 641.792 1014.18 644.567ZM543 650.583C543 653.716 545.348 653.373 545.82 650.172C546.032 648.729 545.612 648 544.57 648C543.549 648 543 648.903 543 650.583ZM1257.56 648.897C1256.83 650.084 1258.04 656 1259.01 656C1259.89 656 1260.79 650.883 1260.22 649.16C1259.76 647.78 1258.34 647.64 1257.56 648.897ZM562 657.917C562 660.049 562.483 661 563.566 661C564.677 661 565.041 660.221 564.816 658.327C564.356 654.434 562 654.091 562 657.917ZM1057.24 663.832C1055.58 664.887 1056.76 671 1058.62 671C1059.56 671 1060 669.727 1060 667C1060 662.947 1059.51 662.388 1057.24 663.832ZM1014.31 670.522C1015.29 676.557 1016.59 676.788 1017.16 671.03C1017.43 668.265 1017.11 667.482 1015.6 667.178C1013.93 666.842 1013.78 667.239 1014.31 670.522ZM583 671.5C583 673.989 583.402 675.033 584.25 674.75C584.938 674.521 585.5 673.058 585.5 671.5C585.5 669.942 584.938 668.479 584.25 668.25C583.402 667.967 583 669.011 583 671.5ZM1258.67 678.667C1257.83 679.498 1257.8 683.315 1258.6 685.412C1259.63 688.081 1261 686.093 1261 681.941C1261 678.24 1260.21 677.127 1258.67 678.667ZM1466.7 681.794C1465.81 683.53 1466.96 690.383 1468.38 691.808C1469.24 692.673 1470.14 693.183 1470.37 692.94C1471.35 691.896 1469.66 682.082 1468.41 681.604C1467.67 681.32 1466.9 681.405 1466.7 681.794ZM1506.57 686.146C1505.83 691.783 1507.09 694.564 1508.88 691.219C1510.95 687.351 1510.45 681 1508.07 681C1507.62 681 1506.95 683.316 1506.57 686.146ZM1604.2 689.2C1602.42 690.978 1602.74 694.809 1604.86 697.083C1606.71 699.062 1606.73 699.044 1607.35 695.291C1607.7 693.206 1607.98 690.712 1607.99 689.75C1608 687.737 1605.96 687.441 1604.2 689.2ZM570.474 691.043C569.679 692.328 571.843 697 573.232 697C574.539 697 573.708 690.722 572.342 690.274C571.705 690.065 570.864 690.411 570.474 691.043ZM1057.4 691.405C1056.54 693.638 1057.39 699.309 1058.64 699.72C1059.75 700.083 1060.95 693.35 1060.19 691.062C1059.68 689.547 1058.03 689.75 1057.4 691.405ZM1016 696.941C1016 701.929 1017.28 704.319 1018.4 701.412C1019.17 699.39 1019.17 695.608 1018.39 693.582C1017.19 690.438 1016 692.104 1016 696.941ZM552 701.073C552 704.377 552.323 705.084 553.709 704.818C556.277 704.323 556.399 697 553.839 697C552.355 697 552 697.786 552 701.073ZM1259.67 703.667C1258.66 704.675 1258.87 708.885 1260.04 711.066C1261.85 714.452 1263.01 713.158 1262.78 708C1262.58 703.411 1261.47 701.863 1259.67 703.667ZM534.75 707.08C532.56 708.356 532.466 711.858 534.601 712.677C536.472 713.395 537.963 711.444 537.985 708.25C538.002 705.776 537.377 705.55 534.75 707.08ZM1057.65 709.989C1057.03 713.122 1057.67 716 1058.99 716C1059.42 716 1059.95 714.763 1060.16 713.25C1061 707.369 1058.76 704.46 1057.65 709.989ZM1016.61 715.25C1017.47 720.238 1017.9 721.18 1018.99 720.504C1021.14 719.176 1019.81 712 1017.42 712C1016.43 712 1016.2 712.893 1016.61 715.25ZM1390.51 714.976C1389.83 718.057 1390.43 720 1392.06 720C1392.58 720 1393 718.2 1393 716C1393 711.318 1391.45 710.681 1390.51 714.976ZM1603.61 717.582C1603.27 718.452 1603 721.377 1603 724.082C1603 727.729 1603.38 729 1604.46 729C1606.58 729 1608.48 721.342 1607.1 718.332C1605.87 715.626 1604.47 715.326 1603.61 717.582ZM1503.2 728.2C1501.45 729.947 1501.61 739 1503.39 739C1505.24 739 1506 736.786 1506 731.418C1506 726.889 1505.31 726.093 1503.2 728.2ZM1057.19 732.068C1057.36 734.474 1058.07 736.533 1058.81 736.776C1059.79 737.098 1060.04 736.113 1059.81 732.932C1059.64 730.526 1058.93 728.467 1058.19 728.224C1057.21 727.902 1056.96 728.887 1057.19 732.068ZM1471.63 731.25C1470.7 734.713 1470.89 738.814 1472.01 739.504C1473.17 740.226 1473.61 739.105 1474.43 733.25C1474.88 729.996 1474.7 729 1473.63 729C1472.86 729 1471.96 730.013 1471.63 731.25ZM1018 734.417C1018 738.709 1019.24 740.56 1020.23 737.75C1021.09 735.311 1020.48 730.66 1019.25 730.25C1018.37 729.957 1018 731.195 1018 734.417ZM535.667 732.667C534.616 733.717 534.89 740.814 536.008 741.505C537.062 742.157 540 739.777 540 738.271C540 736.938 537.577 732.017 536.917 732.008C536.596 732.004 536.033 732.3 535.667 732.667ZM752.2 735.2C750.921 736.479 750.56 741.227 751.658 742.325C752.983 743.649 755 740.663 755 737.378C755 733.828 754.197 733.203 752.2 735.2ZM1258.69 736.096C1258.06 738.49 1258.79 741 1260.11 741C1260.6 741 1261 740.137 1261 739.082C1261 738.027 1261.27 736.452 1261.61 735.582C1261.99 734.575 1261.67 734 1260.72 734C1259.9 734 1258.99 734.943 1258.69 736.096ZM705 738C705 740.089 705.425 741.025 706.25 740.75C706.938 740.521 707.5 739.283 707.5 738C707.5 736.717 706.938 735.479 706.25 735.25C705.425 734.975 705 735.911 705 738ZM1773.77 741.75C1773.36 746.145 1774.22 749.115 1775.51 747.819C1775.82 747.518 1776.34 744.96 1776.67 742.136C1777.17 737.916 1777 737 1775.74 737C1774.63 737 1774.08 738.33 1773.77 741.75ZM1392 742.5C1392 747.254 1393.35 748.54 1394.37 744.75C1395.43 740.781 1395.08 738 1393.5 738C1392.39 738 1392 739.167 1392 742.5ZM561.78 740.553C560.896 741.437 562.266 746.999 563.363 746.985C565.443 746.957 567.075 745.359 566.515 743.899C565.901 742.299 562.463 739.87 561.78 740.553ZM583 750.607C583 752.573 583.389 753.065 584.582 752.607C585.452 752.273 586.806 752 587.59 752C588.767 752 588.798 751.649 587.768 750C585.916 747.034 583 747.405 583 750.607ZM1602.39 762.422C1601.54 764.645 1602.39 770.311 1603.65 770.721C1605.33 771.274 1605.9 762.174 1604.22 761.53C1603.51 761.257 1602.68 761.658 1602.39 762.422ZM1258.43 766.322C1257.42 768.967 1258.41 774.5 1259.9 774.5C1260.9 774.5 1261.31 773.204 1261.31 770.051C1261.31 765.67 1259.55 763.396 1258.43 766.322ZM1393.78 769.019C1393.36 771.93 1394.99 774.678 1396.34 773.325C1396.7 772.963 1397 771.167 1397 769.333C1397 765.05 1394.4 764.796 1393.78 769.019ZM1773.01 776.25C1773.03 781.797 1773.98 785.175 1775.38 784.706C1776.71 784.262 1776.91 775.063 1775.64 773.25C1773.97 770.891 1773 772.005 1773.01 776.25ZM1134.7 774.632C1133.34 775.997 1133.97 780 1135.55 780C1138.02 780 1143.31 776.91 1142.36 776.02C1141.09 774.828 1135.52 773.817 1134.7 774.632ZM576.187 778.25C576.359 780.038 576.95 781.5 577.5 781.5C578.05 781.5 578.641 780.038 578.813 778.25C579.051 775.787 578.733 775 577.5 775C576.267 775 575.949 775.787 576.187 778.25ZM1470.01 779.25C1470.05 786.762 1473.22 789.958 1473.66 782.926C1473.95 778.381 1473.18 776 1471.43 776C1470.48 776 1470.01 777.089 1470.01 779.25ZM1501.35 777.051C1500.15 778.245 1500.77 783 1502.12 783C1502.6 783 1503 783.675 1503 784.5C1503 786.48 1504.62 786.425 1505.39 784.418C1506.37 781.869 1506.09 778.494 1504.8 777.2C1503.33 775.727 1502.7 775.7 1501.35 777.051ZM705.07 779.415C703.61 781.175 704.737 786 706.608 786C707.528 786 708 784.832 708 782.559C708 778.662 706.781 777.354 705.07 779.415ZM1154.25 779.25C1154.51 780.042 1156.62 780.5 1160 780.5C1163.38 780.5 1165.49 780.042 1165.75 779.25C1166.05 778.34 1164.49 778 1160 778C1155.51 778 1153.95 778.34 1154.25 779.25ZM1188.67 780.667C1187.17 782.161 1188.19 783 1191.5 783C1193.94 783 1195 782.548 1195 781.5C1195 779.971 1190.02 779.315 1188.67 780.667ZM754.152 781.885C752.414 782.986 753.07 786.5 755.014 786.5C755.892 786.5 756.629 785.375 756.816 783.75C757.144 780.901 756.46 780.422 754.152 781.885ZM552.307 791.5C551.741 793.975 551.595 796 551.984 796C553.075 796 556 792.484 556 791.171C556 790.527 556.563 789.986 557.25 789.968C558.481 789.937 555.243 787 553.977 787C553.625 787 552.874 789.025 552.307 791.5ZM1601 794.918C1601 799.347 1601.79 802 1603.11 802C1603.6 802 1604 799.525 1604 796.5C1604 792.278 1603.65 791 1602.5 791C1601.42 791 1601 792.102 1601 794.918ZM1391.67 794.667C1390.42 795.917 1390.98 801.778 1392.4 802.324C1394.24 803.029 1395 802.178 1395 799.415C1395 795.189 1393.41 792.923 1391.67 794.667ZM1258 802.5C1258 805.885 1258.38 807 1259.54 807C1260.74 807 1261.02 806.011 1260.79 802.501C1260.4 796.382 1258 796.382 1258 802.5ZM532.688 799.646C531.698 800.636 531.84 804.783 532.887 805.43C534.168 806.222 536.223 803.397 535.833 801.381C535.468 799.5 533.77 798.563 532.688 799.646ZM1776 810.917C1776 815.412 1776.36 817 1777.38 817C1780.27 817 1780.11 806.203 1777.19 805.232C1776.36 804.952 1776 806.642 1776 810.917ZM1501.17 817.25C1500.16 820.937 1500.9 822.361 1503.33 821.426C1504.44 821.003 1505 819.638 1505 817.393C1505 812.927 1502.38 812.83 1501.17 817.25ZM1132.21 816.568C1130.97 817.431 1130.23 818.556 1130.54 819.068C1131.35 820.372 1141.73 820.238 1142.55 818.913C1143.59 817.228 1141.26 815.339 1139.86 816.736C1139.02 817.583 1138.36 817.507 1137.29 816.436C1135.48 814.625 1134.96 814.639 1132.21 816.568ZM1466.67 819.5C1464.02 821.44 1464.73 827.39 1467.66 827.808C1469.61 828.086 1469.81 827.675 1469.75 823.519C1469.67 818.265 1469.2 817.65 1466.67 819.5ZM1153.69 819.639C1152.23 821.105 1154.45 822 1159.56 822C1165.1 822 1166.82 820.721 1162.75 819.63C1159.77 818.832 1154.5 818.837 1153.69 819.639ZM1182.22 822.187C1182.47 822.926 1184.53 823.637 1186.93 823.813C1190.11 824.045 1191.1 823.789 1190.78 822.813C1190.53 822.074 1188.47 821.363 1186.07 821.187C1182.89 820.955 1181.9 821.211 1182.22 822.187ZM1606.42 825.123C1605.5 826.612 1606.98 839 1608.08 839C1608.99 839 1609.2 837.555 1609.51 829.294C1609.67 825.204 1607.87 822.779 1606.42 825.123ZM237 828.278C237 832.125 240.606 836.191 241.636 833.505C241.957 832.669 241.925 830.413 241.565 828.492C241.081 825.917 240.396 825 238.955 825C237.413 825 237 825.692 237 828.278ZM266.623 826.54C266.28 827.433 266 829.96 266 832.155C266 835.418 266.319 836.085 267.75 835.81C269.133 835.543 269.5 834.444 269.5 830.57C269.5 825.708 267.837 823.378 266.623 826.54ZM1396.45 827.35C1395.64 830.579 1396.18 833.226 1397.75 833.75C1398.6 834.032 1399 833.005 1399 830.583C1399 828.612 1399.03 826.674 1399.07 826.275C1399.28 824.261 1396.99 825.2 1396.45 827.35ZM1261 836.417C1261 838.938 1261.45 841 1262 841C1262.55 841 1263.04 840.438 1263.1 839.75C1263.53 834.376 1263.33 832.615 1262.25 832.252C1261.37 831.958 1261 833.193 1261 836.417ZM706.688 833.646C705.384 834.95 705.994 839.784 707.538 840.376C709.319 841.06 710.303 839.136 709.829 835.901C709.489 833.584 707.894 832.439 706.688 833.646ZM756.688 833.646C756.309 834.024 756 835.608 756 837.167C756 839.362 756.464 840 758.063 840C759.78 840 760.074 839.467 759.813 836.827C759.508 833.731 758.068 832.266 756.688 833.646ZM527 840.417C527 843 527.436 844 528.563 844C529.719 844 530.045 843.172 529.813 840.827C529.361 836.243 527 835.898 527 840.417ZM546.457 844.75C547.483 848.932 549.109 850.168 551.375 848.487C553.636 846.81 552.822 843.471 550.38 844.408C549.236 844.847 548.943 844.59 549.357 843.511C549.76 842.462 549.303 842 547.86 842C546.098 842 545.885 842.416 546.457 844.75ZM578.556 845.91C577.479 847.652 579.23 850 581.607 850C584.295 850 584.435 849.682 582.965 846.934C581.88 844.907 579.515 844.358 578.556 845.91ZM1773 853.083C1773 856.582 1773.37 858.042 1774.19 857.768C1777.03 856.822 1777.2 848 1774.38 848C1773.39 848 1773 849.422 1773 853.083ZM1393.19 858.25C1393.45 861.783 1393.88 862.554 1395.75 862.82C1397.58 863.079 1398 862.662 1398 860.581C1398 858.065 1395.36 854 1393.72 854C1393.26 854 1393.02 855.913 1393.19 858.25ZM1469.75 862.25C1469.48 864.038 1469.48 866.063 1469.74 866.75C1470.62 869.061 1472 868.027 1472 865.059C1472 863.441 1472.46 861.835 1473.02 861.49C1474.3 860.694 1473.31 859 1471.55 859C1470.82 859 1470.01 860.457 1469.75 862.25ZM1608.19 867.75C1608.41 871.17 1608.92 872.5 1610 872.5C1610.82 872.5 1611.65 871.442 1611.83 870.148C1612.34 866.562 1611.14 863 1609.43 863C1608.22 863 1607.95 864.013 1608.19 867.75ZM238.667 865.667C238.3 866.033 238 868.058 238 870.167C238 872.907 238.428 874 239.5 874C240.611 874 241 872.833 241 869.5C241 865.301 240.256 864.078 238.667 865.667ZM1261.69 866.734C1260.4 868.921 1259.99 874.118 1260.97 875.941C1262.91 879.566 1264.06 878.189 1263.87 872.463C1263.7 867.34 1262.77 864.894 1261.69 866.734ZM269.035 868.934C267.742 871.351 267.734 874.048 269.015 876C269.891 877.333 270.109 877.333 270.985 876C272.256 874.063 272.296 867 271.035 867C270.505 867 269.605 867.87 269.035 868.934ZM1129.94 872.576C1128.22 874.651 1130.3 876.128 1134.42 875.761C1138.48 875.399 1138.73 873.45 1134.9 872.114C1130.98 870.749 1131.49 870.701 1129.94 872.576ZM1158.25 872.807C1155.36 873.017 1154 873.575 1154 874.557C1154 875.654 1155.44 876 1160 876C1163.3 876 1166 875.658 1166 875.241C1166 873.659 1162.34 872.511 1158.25 872.807ZM582.667 874.667C581.615 875.718 581.89 883 582.981 883C583.997 883 584.781 880.155 584.841 876.25C584.875 874.03 583.966 873.367 582.667 874.667ZM1183.75 874.689C1181.22 875.35 1181.6 876.897 1184.56 878.025C1188.83 879.646 1192 879.254 1192 877.107C1192 874.369 1188.69 873.399 1183.75 874.689ZM155.015 885.167C155.038 889.999 156.238 891.5 158.277 889.246C159.622 887.76 159.697 887.028 158.703 885.052C156.802 881.27 154.998 881.326 155.015 885.167ZM190.383 884.609C189.599 887.735 191.583 890.275 193.026 887.992C194.433 885.766 194.194 883.288 192.51 882.642C191.504 882.256 190.813 882.895 190.383 884.609ZM1774.31 889.591C1775.16 900.029 1776.92 900.044 1777.4 889.619C1777.68 883.607 1777.52 883 1775.74 883C1773.94 883 1773.82 883.529 1774.31 889.591ZM1468.94 884.25C1468.23 887.016 1468.82 894.44 1469.77 894.757C1470.51 895.005 1471.05 894.145 1471.12 892.583C1471.45 885.924 1471.2 884 1470 884C1469.45 884 1468.97 884.112 1468.94 884.25ZM561.607 886.582C560.469 889.547 560.949 893 562.5 893C563.583 893 564 891.889 564 889C564 884.959 562.724 883.67 561.607 886.582ZM758.39 886.427C757.585 888.524 758.327 892.286 759.63 892.715C760.772 893.091 761.934 888.302 761.22 886.16C760.684 884.553 759.05 884.707 758.39 886.427ZM706 890C706 892.2 706.45 894 707 894C707.55 894 708 892.2 708 890C708 887.8 707.55 886 707 886C706.45 886 706 887.8 706 890ZM1397 893.927C1397 897.373 1397.32 898 1399.06 898C1400.83 898 1401.08 897.47 1400.81 894.258C1400.59 891.643 1399.97 890.417 1398.75 890.185C1397.32 889.913 1397 890.588 1397 893.927ZM1607.12 895.354C1606.42 896.196 1606.24 898.462 1606.64 901.354C1607.66 908.813 1610 906.77 1610 898.418C1610 893.899 1609.11 892.954 1607.12 895.354ZM533.393 899.419C532.57 901.563 533.88 906.529 534.969 905.395C536.403 903.901 536.607 898.711 535.251 898.254C534.563 898.023 533.727 898.547 533.393 899.419ZM1258 903C1258 905.889 1258.38 907.039 1259.25 906.75C1259.94 906.521 1260.5 904.833 1260.5 903C1260.5 901.167 1259.94 899.479 1259.25 899.25C1258.38 898.961 1258 900.111 1258 903ZM1468.65 905.233C1468.33 906.461 1468.49 907.893 1469.02 908.416C1470.2 909.6 1470.55 909.206 1471.38 905.75C1472.2 902.321 1469.54 901.817 1468.65 905.233ZM241.683 911.65C241.308 912.026 241 914.096 241 916.25C241 921.11 243.344 920.94 243.823 916.046C244.145 912.753 242.978 910.355 241.683 911.65ZM268.5 914C267.649 916.68 268.793 920 270.567 920C271.572 920 272 918.805 272 916C272 911.651 269.669 910.318 268.5 914ZM1127.62 914.798C1127.35 915.237 1127.48 916.159 1127.91 916.848C1128.89 918.441 1138.14 917.07 1138.75 915.24C1139.22 913.833 1128.49 913.406 1127.62 914.798ZM1156.69 915.7C1155.7 915.957 1155.07 916.693 1155.3 917.334C1155.86 918.937 1164.1 918.234 1165.96 916.425C1167.24 915.186 1166.84 915.015 1162.96 915.116C1160.51 915.18 1157.69 915.443 1156.69 915.7ZM1186.03 915.961C1184.01 917.236 1185.39 918.333 1189 918.333C1192.4 918.333 1193.5 917.624 1192.54 916.067C1191.73 914.759 1188.03 914.699 1186.03 915.961ZM1396.67 915.667C1395.65 916.688 1395.87 923.804 1396.95 924.469C1398.33 925.324 1400.28 921.134 1399.41 919.172C1399.01 918.252 1398.63 917.2 1398.59 916.833C1398.43 915.641 1397.35 914.984 1396.67 915.667ZM1774.61 920.293C1773.28 921.271 1772.95 922.717 1773.19 926.533C1773.36 929.265 1773.95 931.5 1774.5 931.5C1775.33 931.5 1777.28 920.011 1776.58 919.26C1776.45 919.129 1775.57 919.593 1774.61 920.293ZM190.83 927.011C191.129 930.15 191.602 931.031 192.86 930.788C194.006 930.568 194.5 929.422 194.5 926.986C194.5 924.245 194.066 923.438 192.47 923.209C190.661 922.95 190.482 923.366 190.83 927.011ZM156.667 924.667C155.592 925.742 155.902 930.821 157.087 931.554C158.851 932.644 159.822 930.736 159.279 927.25C158.785 924.078 158.016 923.318 156.667 924.667ZM527 929C527 931.2 527.45 933 528 933C528.55 933 529 931.65 529 930C529 928.35 529.477 927 530.059 927C530.641 927 530.84 926.55 530.5 926C530.16 925.45 529.234 925 528.441 925C527.427 925 527 926.184 527 929ZM707 934.917C707 940.194 708.515 941.781 709.564 937.602C710.391 934.305 709.755 930.74 708.25 930.245C707.36 929.952 707 931.297 707 934.917ZM1259.19 935.672C1259.56 941.273 1262 943.007 1262 937.665C1262 933.562 1261.17 931 1259.84 931C1259.32 931 1259.03 933.102 1259.19 935.672ZM1610.67 932.667C1610.3 933.033 1610 935.283 1610 937.667C1610 942.907 1612.51 943.789 1613.24 938.805C1613.98 933.744 1612.69 930.648 1610.67 932.667ZM758.567 937.75C759.356 943.185 759.481 943.439 760.933 942.541C761.52 942.179 762 939.884 762 937.441C762 933.623 761.711 933 759.939 933C758.05 933 757.935 933.397 758.567 937.75ZM558.354 935.519C557.663 937.32 558.727 942 559.828 942C560.262 942 561.436 941.402 562.435 940.671C563.902 939.598 564.041 938.945 563.154 937.288C561.71 934.591 559.082 933.622 558.354 935.519ZM583 941C583 943.533 583.389 944 585.5 944C588.484 944 588.641 943.045 586.133 940.153C583.63 937.267 583 937.437 583 941ZM242.683 945.65C241.639 946.695 241.87 956 242.941 956C244.452 956 245.2 954.123 245.2 950.334C245.2 946.755 243.934 944.399 242.683 945.65ZM271.639 945.694C270.652 946.681 270.884 957 271.893 957C273.206 957 274 954.352 274 949.977C274 946.25 272.964 944.37 271.639 945.694ZM1401 952.5C1401 956.589 1401.35 958.051 1402.25 957.75C1403.02 957.493 1403.5 955.478 1403.5 952.5C1403.5 949.522 1403.02 947.507 1402.25 947.25C1401.35 946.949 1401 948.411 1401 952.5ZM1258.67 957.667C1257.6 958.73 1257.9 962.817 1259.09 963.554C1260.85 964.644 1262.31 962.35 1261.61 959.573C1260.97 957.028 1259.96 956.374 1258.67 957.667ZM1609.47 960.228C1608.57 962.554 1609.35 969.5 1610.5 969.5C1611.86 969.5 1612.38 960.983 1611.1 959.697C1610.39 958.988 1609.88 959.155 1609.47 960.228ZM1772.64 964.603C1771.69 971.532 1771.84 973 1773.5 973C1774.96 973 1775.19 971.866 1775.42 963.583C1775.55 958.697 1773.34 959.511 1772.64 964.603ZM190.639 963.694C189.355 964.978 190.005 972.759 191.5 974C192.803 975.081 193 974.513 193 969.681C193 964.465 192.114 962.219 190.639 963.694ZM158.198 970.171C158.631 977.578 161 977.927 161 970.583C161 966.203 160.665 965 159.448 965C158.206 965 157.956 966.034 158.198 970.171ZM1127.75 966.893C1125.34 969.339 1125.5 969.684 1129.44 970.423C1133.8 971.241 1138 970.216 1138 968.333C1138 967.535 1137.55 967.16 1137 967.5C1136.45 967.84 1136 967.416 1136 966.559C1136 964.366 1130 964.609 1127.75 966.893ZM1154 969.5C1154 970.652 1155.28 971 1159.5 971C1165.09 971 1166.84 969.726 1162.75 968.63C1158.43 967.473 1154 967.914 1154 969.5ZM1184.5 969C1183.35 970.854 1185.09 972 1189.06 972C1191.75 972 1193 971.56 1193 970.617C1193 968.393 1185.73 967.01 1184.5 969ZM578.015 973.75C578.033 978.08 579.559 981.454 580.378 978.972C580.645 978.162 581.029 975.813 581.231 973.75C581.533 970.67 581.277 970 579.799 970C578.384 970 578.003 970.8 578.015 973.75ZM1398.36 971.502C1397.61 973.469 1398.76 978 1400.02 978C1400.56 978 1401 976.2 1401 974C1401 970.042 1399.47 968.599 1398.36 971.502ZM549.966 983.064C549.146 984.596 549.168 985.498 550.053 986.564C551.841 988.718 553 988.3 553 985.5C553 984.125 553.477 983 554.059 983C554.641 983 554.84 982.55 554.5 982C553.468 980.33 551.136 980.878 549.966 983.064ZM709.658 981.675C709.296 982.037 709 984.733 709 987.667C709 991.578 709.374 993 710.403 993C711.379 993 711.913 991.448 712.153 987.915C712.476 983.187 711.239 980.095 709.658 981.675ZM758.603 982.592C757.682 984.991 759.024 991.159 760.369 990.71C761.841 990.22 761.845 981.788 760.373 981.294C759.753 981.086 758.957 981.67 758.603 982.592ZM1260.46 984.248C1259.61 986.448 1260.29 991.016 1261.5 991.281C1262.87 991.581 1263.4 984.997 1262.11 983.706C1261.39 982.986 1260.88 983.153 1260.46 984.248ZM1609 992.418C1609 997.308 1609.75 1000 1611.11 1000C1612.14 1000 1612.28 995.628 1611.38 991.125C1610.46 986.529 1609 987.322 1609 992.418ZM243.617 991.556C242.623 994.145 242.908 999.825 244.067 1000.54C245.623 1001.5 246.07 1000.69 246.484 996.172C246.883 991.817 244.802 988.467 243.617 991.556ZM268.739 992.25C268.272 993.481 268.938 1000 269.532 1000C272.528 1000 273.887 996.476 272.393 992.582C271.669 990.695 269.408 990.489 268.739 992.25ZM1398 994.918C1398 995.973 1397.77 997.449 1397.48 998.197C1397.19 998.945 1397.63 1000.44 1398.45 1001.53C1399.83 1003.36 1399.94 1003.12 1399.97 998.25C1399.99 995.362 1399.55 993 1399 993C1398.45 993 1398 993.863 1398 994.918ZM1771.63 995.25C1770.74 998.592 1770.88 1001.8 1771.95 1002.47C1773.1 1003.18 1775.1 996.424 1774.33 994.425C1773.53 992.322 1772.32 992.691 1771.63 995.25ZM530 998.508C530 1001.74 531.725 1002.56 534.063 1000.44C536.853 997.918 536.45 996.317 533 996.219C530.485 996.148 530 996.518 530 998.508ZM158.195 1003.67C158.63 1010.34 161 1010.69 161 1004.08C161 1000.15 160.648 999 159.445 999C158.217 999 157.954 999.982 158.195 1003.67ZM192.436 1001.4C191.609 1004.7 192.245 1008.26 193.75 1008.76C194.64 1009.05 195 1007.7 195 1004.08C195 998.806 193.485 997.219 192.436 1001.4ZM1189.45 1006.09C1189.08 1006.68 1189.22 1007.62 1189.77 1008.17C1191.3 1009.7 1195.44 1008.72 1195.81 1006.75C1196.07 1005.4 1195.46 1005 1193.13 1005C1191.47 1005 1189.82 1005.49 1189.45 1006.09ZM1158.34 1007.25C1157.48 1008.64 1159.1 1010 1161.62 1010C1164.31 1010 1168 1008.39 1168 1007.22C1168 1006.26 1158.94 1006.29 1158.34 1007.25ZM1258.59 1007.63C1258.25 1008.52 1258.52 1009.91 1259.19 1010.72C1260.24 1012 1260.49 1011.95 1261.06 1010.35C1262.3 1006.88 1259.89 1004.23 1258.59 1007.63ZM1129 1010.54C1129 1012.94 1129.22 1013.05 1132.75 1012.42C1139.61 1011.21 1139.75 1008 1132.94 1008C1129.39 1008 1129 1008.25 1129 1010.54ZM1608.41 1012.51C1607.64 1015.56 1608.74 1022 1610.02 1022C1610.53 1022 1610.92 1019.3 1610.87 1016C1610.78 1009.84 1609.53 1008.06 1608.41 1012.51ZM1772.68 1011.65C1771.68 1012.65 1771.85 1024 1772.86 1024C1774.04 1024 1775.27 1012.87 1774.21 1011.81C1773.75 1011.35 1773.06 1011.27 1772.68 1011.65ZM1397.77 1013.25C1397.06 1015.25 1398.12 1023 1399.1 1023C1399.6 1023 1400 1020.53 1400 1017.5C1400 1012.45 1398.84 1010.23 1397.77 1013.25ZM557.514 1015.98C556.806 1017.12 558.67 1021 559.928 1021C560.655 1021 562 1018.7 562 1017.45C562 1016.38 558.064 1015.09 557.514 1015.98ZM1259.47 1022.05C1258.52 1023.59 1259.82 1024.58 1261.1 1023.3C1261.82 1022.58 1261.84 1022.02 1261.16 1021.6C1260.6 1021.25 1259.84 1021.45 1259.47 1022.05Z" fill="#FFA637"/>
</svg>
